HIERARCHY
ROOT hip
{
  OFFSET 0 0 0
  CHANNELS 6 Xposition Yposition Zposition Zrotation Yrotation Xrotation
  JOINT abdomen
  {
    OFFSET 0 20.6881 -0.73152
    CHANNELS 3 Zrotation Xrotation Yrotation
    JOINT chest
    {
      OFFSET 0 11.7043 -0.48768
      CHANNELS 3 Zrotation Xrotation Yrotation
      JOINT neck
      {
        OFFSET 0 22.1894 -2.19456
        CHANNELS 3 Zrotation Xrotation Yrotation
        JOINT head
        {
          OFFSET -0.24384 7.07133 1.2192
          CHANNELS 3 Zrotation Xrotation Yrotation
          JOINT leftEye
          {
            OFFSET 4.14528 8.04674 8.04672
            CHANNELS 3 Zrotation Xrotation Yrotation
            End Site
            {
              OFFSET 1 0 0
            }
          }
          JOINT rightEye
          {
            OFFSET -3.6576 8.04674 8.04672
            CHANNELS 3 Zrotation Xrotation Yrotation
            End Site
            {
              OFFSET 1 0 0
            }
          }
        }
      }
      JOINT rCollar
      {
        OFFSET -2.68224 19.2634 -4.8768
        CHANNELS 3 Zrotation Xrotation Yrotation
        JOINT rShldr
        {
          OFFSET -8.77824 -1.95073 1.46304
          CHANNELS 3 Zrotation Xrotation Yrotation
          JOINT rForeArm
          {
            OFFSET -28.1742 -1.7115 0.48768
            CHANNELS 3 Zrotation Xrotation Yrotation
            JOINT rHand
            {
              OFFSET -22.5879 0.773209 7.07136
              CHANNELS 3 Zrotation Xrotation Yrotation
              JOINT rThumb1
              {
                OFFSET -1.2192 -0.487915 3.41376
                CHANNELS 3 Zrotation Xrotation Yrotation
                JOINT rThumb2
                {
                  OFFSET -3.37035 -0.52449 3.41376
                  CHANNELS 3 Zrotation Xrotation Yrotation
                  End Site
                  {
                    OFFSET -1.78271 -1.18214 1.43049
                  }
                }
              }
              JOINT rIndex1
              {
                OFFSET -7.75947 0.938293 5.60832
                CHANNELS 3 Zrotation Xrotation Yrotation
                JOINT rIndex2
                {
                  OFFSET -2.54057 -0.884171 1.56538
                  CHANNELS 3 Zrotation Xrotation Yrotation
                  End Site
                  {
                    OFFSET -1.62519 -0.234802 1.16502
                  }
                }
              }
              JOINT rMid1
              {
                OFFSET -8.24714 1.18213 3.41376
                CHANNELS 3 Zrotation Xrotation Yrotation
                JOINT rMid2
                {
                  OFFSET -3.10165 -0.590103 1.0647
                  CHANNELS 3 Zrotation Xrotation Yrotation
                  End Site
                  {
                    OFFSET -2.48547 -0.328903 0.83742
                  }
                }
              }
              JOINT rRing1
              {
                OFFSET -8.82822 0.546677 1.51678
                CHANNELS 3 Zrotation Xrotation Yrotation
                JOINT rRing2
                {
                  OFFSET -2.60934 -0.819778 -0.0198488
                  CHANNELS 3 Zrotation Xrotation Yrotation
                  End Site
                  {
                    OFFSET -2.33842 -0.294052 0.168128
                  }
                }
              }
              JOINT rPinky1
              {
                OFFSET -8.27202 -0.0477905 -0.4584
                CHANNELS 3 Zrotation Xrotation Yrotation
                JOINT rPinky2
                {
                  OFFSET -1.82734 -0.647385 -0.700984
                  CHANNELS 3 Zrotation Xrotation Yrotation
                  End Site
                  {
                    OFFSET -1.69225 -0.51767 -0.607171
                  }
                }
              }
            }
          }
        }
      }
      JOINT lCollar
      {
        OFFSET 2.68224 19.2634 -4.8768
        CHANNELS 3 Zrotation Xrotation Yrotation
        JOINT lShldr
        {
          OFFSET 8.77824 -1.95073 1.46304
          CHANNELS 3 Zrotation Xrotation Yrotation
          JOINT lForeArm
          {
            OFFSET 28.1742 -1.7115 0.48768
            CHANNELS 3 Zrotation Xrotation Yrotation
            JOINT lHand
            {
              OFFSET 22.5879 0.773209 7.07136
              CHANNELS 3 Zrotation Xrotation Yrotation
              JOINT lThumb1
              {
                OFFSET 1.2192 -0.487915 3.41376
                CHANNELS 3 Zrotation Xrotation Yrotation
                JOINT lThumb2
                {
                  OFFSET 3.37035 -0.52449 3.41376
                  CHANNELS 3 Zrotation Xrotation Yrotation
                  End Site
                  {
                    OFFSET 1.78271 -1.18214 1.43049
                  }
                }
              }
              JOINT lIndex1
              {
                OFFSET 7.75947 0.938293 5.60832
                CHANNELS 3 Zrotation Xrotation Yrotation
                JOINT lIndex2
                {
                  OFFSET 2.54057 -0.884171 1.56538
                  CHANNELS 3 Zrotation Xrotation Yrotation
                  End Site
                  {
                    OFFSET 1.62519 -0.234802 1.16502
                  }
                }
              }
              JOINT lMid1
              {
                OFFSET 8.24714 1.18213 3.41376
                CHANNELS 3 Zrotation Xrotation Yrotation
                JOINT lMid2
                {
                  OFFSET 3.10165 -0.590103 1.0647
                  CHANNELS 3 Zrotation Xrotation Yrotation
                  End Site
                  {
                    OFFSET 2.48547 -0.328903 0.83742
                  }
                }
              }
              JOINT lRing1
              {
                OFFSET 8.82822 0.546677 1.51678
                CHANNELS 3 Zrotation Xrotation Yrotation
                JOINT lRing2
                {
                  OFFSET 2.60934 -0.819778 -0.0198488
                  CHANNELS 3 Zrotation Xrotation Yrotation
                  End Site
                  {
                    OFFSET 2.33842 -0.294052 0.168128
                  }
                }
              }
              JOINT lPinky1
              {
                OFFSET 8.27202 -0.0477905 -0.4584
                CHANNELS 3 Zrotation Xrotation Yrotation
                JOINT lPinky2
                {
                  OFFSET 1.82734 -0.647385 -0.700984
                  CHANNELS 3 Zrotation Xrotation Yrotation
                  End Site
                  {
                    OFFSET 1.69225 -0.51767 -0.607171
                  }
                }
              }
            }
          }
        }
      }
    }
  }
  JOINT rButtock
  {
    OFFSET -8.77824 4.35084 1.2192
    CHANNELS 3 Zrotation Xrotation Yrotation
    JOINT rThigh
    {
      OFFSET 0 -1.70687 -2.19456
      CHANNELS 3 Zrotation Xrotation Yrotation
      JOINT rShin
      {
        OFFSET 0 -36.8199 0.73152
        CHANNELS 3 Zrotation Xrotation Yrotation
        JOINT rFoot
        {
          OFFSET 0.73152 -45.1104 -5.12064
          CHANNELS 3 Zrotation Xrotation Yrotation
          End Site
          {
            OFFSET -1.1221 -3.69964 12.103
          }
        }
      }
    }
  }
  JOINT lButtock
  {
    OFFSET 8.77824 4.35084 1.2192
    CHANNELS 3 Zrotation Xrotation Yrotation
    JOINT lThigh
    {
      OFFSET 0 -1.70687 -2.19456
      CHANNELS 3 Zrotation Xrotation Yrotation
      JOINT lShin
      {
        OFFSET 0 -36.8199 0.73152
        CHANNELS 3 Zrotation Xrotation Yrotation
        JOINT lFoot
        {
          OFFSET -0.73152 -45.1104 -5.12064
          CHANNELS 3 Zrotation Xrotation Yrotation
          End Site
          {
            OFFSET 1.1221 -3.69964 12.103
          }
        }
      }
    }
  }
}
MOTION
Frames:	6
Frame Time:	0.03333
-122.2372 64.4839 -68.9635 179.036844 10.457843 -178.686126 -0.932474 -0.507896 93.695016 -8.943341 -0.053377 -76.492006 1.966227 10.489174 -45.539724 13.968107 1.908924 85.09511 -0.000884 -0.0 0.000542 -0.000884 -0.0 0.000542 3.268954 -26.755784 -5.242069 -145.309922 3.650515 169.823585 150.26399 -76.671756 -93.868136 -12.073965 6.207633 -1.60573 -153.679785 8.23925 87.338142 8.873864 -48.081153 19.906608 -2.685772 4.2267 1.584788 1.951612 12.377581 2.278776 -0.970546 2.779323 0.554028 -163.718396 -6.175534 143.495424 -145.09932 -1.522209 -178.65021 11.936214 26.284285 -6.002906 -23.3888 -36.350603 -22.491606 -154.152225 38.342736 -148.235301 -4.239914 -44.742788 8.646794 151.314577 21.293707 -157.925262 -178.251964 -71.261653 156.248692 7.821269 26.957995 -1.27235 -6.464355 -6.452386 0.635125 138.379087 -40.764509 -122.342407 7.259882 10.781121 -4.546015 -7.093465 4.530272 -0.21378 39.290617 53.365297 -32.878944 -3.318373 0.278896 -0.114952 0.020428 -1.725118 0.542738 -4.437199 41.443436 -7.705492 151.267207 33.67697 146.893807 -1.634884 -0.665051 2.115915 -0.0014 -0.001114 -0.0007 -5.673132 -23.605855 -180.0 -44.55979 -70.307629 0.485218 124.843218 82.620749 -42.810062 0.007997 0.00074 0.003999 23.092781 -34.948503 -180.0 46.62549 -67.873378 2.313519 131.922519 56.594755 141.231334
-125.8227 64.4647 -70.33709999999999 178.42407 11.406747 -177.972311 -0.812493 -2.96312 108.974667 -7.252355 2.166995 -91.285425 16.045217 7.20483 42.371233 -5.874102 -1.687135 -4.539726 0.005286 -0.0 -0.001324 -0.001486 0.0 -0.004107 -59.827847 -86.721828 -81.628788 -177.622786 76.698154 -161.584802 164.99055 -1.479828 22.076968 -166.789276 23.27302 137.909429 -78.030492 38.688605 42.412981 -7.7364 -10.297581 27.712078 -50.385443 40.827364 40.024166 -170.260898 -19.853266 112.078793 -169.090253 -33.24757 145.373297 -164.13237 -7.028524 143.205025 -145.122134 1.97552 -179.748658 -154.316221 -12.530674 -177.505949 12.251277 41.42507 10.281191 -159.613468 52.340904 -149.462102 -0.483303 -3.000703 0.653827 -18.121115 -34.570033 -18.239658 -27.825445 13.399685 -19.331374 25.397169 57.81999 -11.994079 171.603581 -9.286025 -89.950922 159.092666 -0.117848 -83.411318 2.757695 4.332955 -1.62582 165.830217 -18.99451 -109.770862 -78.537351 -80.919053 -49.688359 10.988188 32.184221 -8.733769 145.119329 0.26813 179.211688 -10.241259 0.376298 8.950117 -12.632769 42.934036 -10.532294 1.578227 -8.364773 3.142094 0.001424 3.9e-05 0.001424 -7.302486 -23.890001 -113.574702 -64.100135 -7.11342 102.36108 -20.700102 18.577014 -25.113578 -0.000119 0.001715 0.000153 21.573052 -30.545583 -0.0 -36.055936 55.262318 -75.528324 94.255074 -47.426221 179.835704
-129.10379999999998 64.03710000000001 -71.5261 177.178568 12.648391 -177.289023 -1.019726 -3.345744 77.205053 -7.985067 -2.401938 -58.941688 20.897011 17.375781 111.218326 -11.089163 13.765914 -73.764664 0.001548 -0.0 -0.003399 -0.003509 -0.0 0.001852 4.239163 -44.742758 -8.647907 25.81406 10.873571 1.753262 -41.746434 4.463807 151.490839 24.856185 -65.052199 11.351344 178.850536 -18.544342 89.078999 -77.699861 10.313086 23.94365 -151.352271 -17.158381 121.133789 -160.918703 -14.835669 119.614538 2.100341 -6.30537 -1.081605 -88.710288 64.081214 80.417325 0.000337 -0.060967 -0.018336 -140.363394 60.457972 154.521541 -146.224442 15.469981 -142.749152 22.36454 58.032813 5.983911 159.221204 -48.725013 -170.567461 111.890522 77.658246 -130.391599 -57.525209 -25.278594 -24.171826 147.432839 66.119354 -125.325018 178.927648 -16.453592 -89.422463 -166.106134 -31.409393 -103.090245 -2.325302 -3.868175 1.257809 -5.417464 9.218053 -1.25751 160.673161 -6.667901 -143.244981 163.024033 -3.986201 -142.880351 145.101306 -1.523239 178.650086 152.248814 -25.058092 175.33336 23.841164 -36.726095 22.933788 -29.875509 75.032223 -5.403164 -179.993006 75.751825 -0.004785 165.364091 48.480162 -103.690535 -66.276897 -15.500445 84.906896 -134.173168 -17.870051 38.522909 -179.999689 75.750667 -0.000159 -158.528262 41.543958 149.327811 26.253123 -46.210808 171.573403 117.977928 16.543458 -30.588441
-132.0304 63.79129999999999 -72.6289 175.984912 13.903897 -176.988034 1.336192 -6.428187 180.0 1.410926 6.189529 -160.396832 20.098373 11.369204 76.252682 -10.956408 6.134064 -39.335802 -0.001222 -0.0 0.002738 0.004332 0.0 0.00143 0.117444 -0.714072 -0.158195 -138.702841 23.521562 160.59187 -160.853779 -61.19769 -50.399253 -5.493467 -3.966195 -2.629684 -162.194203 0.113378 89.248769 173.255944 -22.63682 90.986675 24.073851 -42.307046 -5.559823 24.636688 -13.824513 -3.536117 -82.841845 61.111395 74.531625 3.625518 -0.580242 0.083564 -145.101272 -1.522563 -178.650913 -152.264867 76.083196 167.128955 -125.487446 -28.274594 -123.23711 -136.155978 -14.259212 -133.5501 143.33358 38.770774 -147.774 -6.425295 -26.443152 -0.758304 -27.948003 73.594655 85.218762 -168.362198 -18.567317 -143.94254 93.743993 37.964113 -53.54837 -65.934026 -45.815118 -30.211845 4.707597 7.223596 -2.855568 66.201449 48.367159 -50.341725 36.035399 51.723949 -29.830467 -86.350384 -78.247417 -57.447125 0.000688 -0.060761 0.019658 -11.116183 -13.791952 1.712409 0.669695 -1.717958 0.620903 153.971737 35.84286 148.241538 0.003366 0.000593 0.002525 -13.729363 -29.050825 -149.472726 -81.702673 -42.175669 -81.192689 146.126706 5.038545 -133.141735 -0.0 -0.002258 -0.000543 16.17775 -27.633107 -0.0 -23.212042 44.546949 -24.58246 -33.339223 -56.534313 40.951951
-134.5853 63.868199999999995 -73.60910000000001 175.233883 14.851161 -177.144836 -0.535763 -1.147881 39.828684 -6.923623 -8.84547 -20.469738 19.826788 10.912331 73.579266 -11.299133 5.446666 -36.417696 0.001973 0.0 0.000281 0.000644 -0.0 -0.003492 -155.417064 -2.95152 161.718339 -9.849782 13.727444 2.578736 9.248801 14.860306 -150.275897 -177.859241 -0.317493 142.945743 -0.440993 0.43558 0.068706 -1.256213 1.630194 1.336048 73.420296 -73.571067 26.562917 39.135683 -36.483462 -3.541391 -0.058151 0.167808 0.03192 29.356813 -60.225544 6.393776 -0.015931 -1.323051 -0.416506 -156.463234 -31.647236 175.56953 -156.517304 54.249561 -150.181519 -128.801969 -28.151347 -125.608584 6.042454 25.599108 -7.234615 -22.403483 -52.084604 -19.054355 -100.524164 -46.360672 -62.913337 172.143268 38.556138 -143.965963 178.519629 -16.064182 -89.475054 -0.052133 -58.044558 -4.259196 166.821491 -43.973896 -122.061563 7.202742 33.533091 -1.74953 175.765691 -50.334491 -144.099641 86.007454 63.923442 -77.711376 145.12239 1.97484 179.74804 -11.927247 36.626033 4.843632 162.361205 72.063737 150.905388 5.564948 -15.562813 7.329989 179.992204 75.748964 0.008044 159.900491 42.325931 107.292766 78.846689 -7.883166 -169.383929 129.142961 -1.652869 -35.189452 -179.992881 75.750833 -0.006282 -161.958211 46.34259 -13.011053 -20.879641 46.776161 -36.994218 122.851144 35.978009 -35.768526
-136.8951 63.85999999999999 -74.604 175.289996 14.891119 -176.808321 2.578768 -0.948965 -44.399209 5.844492 -9.726108 64.946821 2.453914 21.795846 -118.643938 14.231203 18.114374 155.757591 0.002765 0.0 0.006295 0.000736 -0.0 -0.001548 -155.716712 -4.925331 162.135632 -11.567011 26.28199 2.850919 -173.953087 -7.70343 -67.586748 -7.82173 5.452513 -1.749909 88.928327 -50.832107 37.599529 -92.127765 -86.869668 -130.858859 -10.570375 15.013897 6.864387 6.243823 4.984498 0.220591 -0.058683 0.167754 0.031544 -172.068219 -31.345406 144.10622 -145.101515 -1.438909 -178.675583 12.248403 45.375019 -3.773481 -44.838096 -48.03367 -43.619279 -8.332773 -24.255806 -10.931183 80.16571 68.371825 -83.260949 171.18047 -0.985059 -170.439496 70.02598 86.706131 -99.453935 6.276423 23.898368 -1.040783 -93.736989 -51.113254 -41.002553 15.848494 -46.539943 30.98455 93.640635 40.182423 -78.833411 165.8054 -12.894509 -115.106053 154.521889 10.688924 -139.685115 -18.318156 -42.025293 -0.320829 -0.00451 1.76941 -0.556581 -7.696348 23.990048 -3.531014 23.839096 -36.72679 22.933148 -38.587479 80.76188 1.400422 0.0 -0.000968 0.000859 -15.022257 -32.0421 -40.779524 -44.69449 74.541006 138.56629 -151.991833 4.080303 129.03348 179.9632 75.750446 0.030278 -163.643368 45.824574 0.0 7.804772 54.061766 62.96023 -24.553223 9.536118 -70.703301
